<svg width="40" height="40" viewBox="0 0 40 40" fill="none" xmlns="http://www.w3.org/2000/svg">
<g clip-path="url(#clip0_3196_80834)">
<path d="M19.0152 26.0014H20.9853V20.6283H25.9405V18.7179H20.9853V13.3447H19.0152V18.7179H14.1196V20.6283H19.0152V26.0014Z" fill="#E8762D"/>
<path d="M9.8808 33.7627H11.5524V28.9866H15.9704V27.494H11.5524V22.6582H9.8808V27.494H5.46289V28.9866H9.8808V33.7627Z" fill="#C72037"/>
<path d="M28.4477 16.5086H30.1193V11.7325H34.5969V10.2997H30.1193V5.46387H28.4477V10.2997H24.0298V11.7325H28.4477V16.5086Z" fill="#5B879B"/>
<path d="M19.3132 37.5236H20.746V34.1206H23.7908V32.8669H20.746V29.4639H19.3132V32.8669H16.3281V34.1206H19.3132V37.5236Z" fill="#5C6692"/>
<path d="M9.9405 16.5086H11.4927V11.6728H15.9704V10.2997H11.4927V5.46387H9.9405V10.2997H5.46289V11.6728H9.9405V16.5086Z" fill="#EB9129"/>
<path d="M33.5222 23.6729H34.955V20.3296H37.9998V19.0161H34.955V15.6729H33.5222V19.0161H30.5371V20.3296H33.5222V23.6729Z" fill="#5C6692"/>
<path fill-rule="evenodd" clip-rule="evenodd" d="M28.4477 33.7622H30.1193V28.9861H34.5969V27.4935H30.1193V22.6577H28.4477V27.4935H24.0298V28.9861H28.4477V33.7622Z" fill="#1F457E"/>
<path d="M23.5522 6.29948V5.28456H20.5672V2.00098H19.4925V5.28456H16.5075V6.29948H19.4925V9.58307H20.5672V6.29948H23.5522ZM4.98507 23.4338H6.0597V20.1502H9.04478V19.1353H6.0597V15.9114H4.98507V19.1353H2V20.2099L4.98507 20.1502V23.4338Z" fill="#7199A6"/>
</g>
<defs>
<clipPath id="clip0_3196_80834">
<rect width="36" height="35.5248" fill="white" transform="translate(2 2)"/>
</clipPath>
</defs>
</svg>
